<?xml version="1.0" encoding="UTF-8"?><svg id="Layer_1" xmlns="http://www.w3.org/2000/svg" viewBox="0 0 30.81 50"><defs><style>.cls-1{fill:#55b948;}</style></defs><path class="cls-1" d="m5.87,11.33c.9.04,1.78.26,2.59.67.74.34,1.37.41,1.64.21l2.79-1.88c-.55,0-1.11-.02-1.66-.08-1.53-.59-3.13-.96-4.76-1.1-4.24,0-5.3,5.36-5.3,5.36,2.06-2.33,3.75-3.18,4.7-3.18Zm-3.41,14.67c2.34-2.18,4.19-4.84,5.42-7.8.4-1.06.98-2.04,1.72-2.9.02-.64-.05-1.28-.2-1.91-2.47.61-4.58,2.2-5.84,4.41.39-2.45,2.2-4.44,4.61-5.06-.51-.32-1.09-.52-1.69-.6-.7,0-2.31.13-4.75,2.67C-.71,17.35.07,20.9.3,22.05c.35,1.49,1.1,2.85,2.16,3.95Zm12.33-1.44c.45-.61.55-.9,0-1.25-2.03-1.36-3.61-3.29-4.56-5.54-.18,1.81-.18,3.63,0,5.44-.77-1.75-1.06-3.69-.82-5.59,0,0-2.41,4.19-2.76,4.67s-.48.46-.48.74,1.69,5.44,5,6c.04-.03,3.16-3.88,3.62-4.48h0Zm-8.74.55c-1.05,2-1.53,4.25-1.4,6.51.12,2.1,1.48,3.93,3.46,4.64,1.46-.98,2.4-2.56,2.56-4.31,0-1.53-.07-2.08-.44-2.3l-1.83-1.26c-.3,1.27-.46,2.57-.47,3.87-.69-1.39-.78-3-.25-4.46-.68-.82-1.24-1.73-1.68-2.7h.05Zm-1,.19c.3-.59.09-.81-.2-.55l-2.39,2.04c-.21.82-.3,1.66-.29,2.5-.33-.86-.42-1.79-.26-2.69-.42-.42-.76-.91-1-1.45-.29,1.14-.47,2.3-.55,3.47.07,1.93.68,3.79,1.77,5.38,1-.92,1.6-2.19,1.69-3.55.11-1.77.51-3.52,1.18-5.16h.05Zm1.95,11.15c-.39-.26-1.16-.94-1.16-.94-.15.5-.23,1.02-.23,1.55-.23-.66-.32-1.36-.26-2.06-.49-.78-.88-1.62-1.17-2.5-.27.94-.4,1.93-.36,2.91.04,1.81.41,3.59,1.08,5.27,2-1.51,2.23-2.88,2.23-3.18s.19-.78-.2-1l.07-.05Zm8,.9c-1.1-.86-2.05-1.89-2.81-3.05l-.42,6.11c-.61-.84-.74-6.11-.74-6.11-.3,1.25-2.67,3.12-2.67,3.12-.25,5,3.91,9.21,3.91,9.21,1.73-2.8,2.67-6.02,2.73-9.31v.03Zm-8.67,3.1c-.2.4-.27.35.2,1s2.35,3.87,2.35,3.87c.24-.55.39-1.13.45-1.73-.69-1.43-1.25-2.93-1.67-4.46-.5.38-.95.82-1.34,1.32h0ZM22.44,12c.82-.41,1.72-.63,2.63-.66.95,0,2.67.89,4.7,3.13,0,0-1.07-5.34-5.3-5.34-1.65.13-3.27.51-4.8,1.12-.24.06-1.66.08-1.66.08,0,0,2.5,1.7,2.8,1.88.55.17,1.14.09,1.63-.21Zm5.91,14c1.07-1.11,1.81-2.5,2.15-4,.24-1.15,1-4.66-1.41-7.21s-4-2.67-4.75-2.67c-.6.07-1.17.27-1.68.58,2.4.63,4.21,2.61,4.61,5.06-1.27-2.21-3.38-3.81-5.85-4.43-.17.63-.24,1.27-.21,1.92.75.85,1.33,1.84,1.72,2.9,1.23,2.95,3.08,5.61,5.42,7.79v.06Zm-3.62-3c0-.27-.12-.25-.47-.74s-2.77-4.67-2.77-4.67c.24,1.91-.05,3.85-.82,5.62.18-1.81.18-3.62,0-5.43-.96,2.24-2.54,4.16-4.56,5.53-.57.4-.45.67,0,1.25.45.58,3.57,4.44,3.57,4.44,3.32-.55,5.05-5.72,5.05-6Zm-1.94,13.25c2.01-.69,3.4-2.52,3.53-4.64.12-2.25-.36-4.5-1.39-6.51-.44.98-1.01,1.89-1.69,2.72.54,1.46.46,3.08-.24,4.48,0-1.31-.16-2.61-.46-3.88l-1.85,1.25c-.35.23-.5.78-.42,2.3.17,1.73,1.09,3.29,2.52,4.28Zm6.21-9.81c.17.9.1,1.82-.22,2.68.03-.81-.04-1.62-.22-2.41,0,0-2.07-1.78-2.35-2.07s-.51,0-.21.53c.65,1.64,1.03,3.37,1.13,5.13.09,1.34.68,2.59,1.65,3.51,1.09-1.58,1.71-3.44,1.78-5.36-.06-1.16-.22-2.32-.49-3.45-.25.55-.59,1.05-1,1.49l-.07-.05Zm-3.53,8.56c.08.67.02,1.35-.18,2,0-.52-.08-1.04-.22-1.54,0,0-.79.68-1.16,1s-.28.68-.23,1c.25,1.34,1.05,2.51,2.21,3.23.69-1.69,1.06-3.49,1.11-5.32.05-1.01-.07-2.03-.35-3-.27.92-.65,1.8-1.13,2.63h-.05Zm-2.47,2.4s-2.35-1.88-2.68-3.14c0,0-.12,5.29-.73,6.11l-.43-6.11c-.76,1.17-1.71,2.21-2.81,3.06.03,3.28.95,6.49,2.65,9.29,0,0,4.25-4.23,4-9.2h0Zm.67,1.71c-.42,1.54-.98,3.03-1.67,4.46.04.59.17,1.18.4,1.73,0,0,1.85-3.19,2.33-3.87s.41-.63.21-1c-.37-.47-.79-.9-1.25-1.28l-.02-.04ZM14.67,6.43c0,1.1-.1,3.21-.1,3.21.37.04.75-.02,1.09-.17,0,0,.12-2.5.1-5.35s-.23-4.12-.59-4.12c-.56.07-1,.89-1,1.14v1.36c-.04.62.51,2.87.51,3.93h-.01Zm.55,10.12c-.36-1.95-.56-3.92-.61-5.9-1.63.45-3.14,1.29-4.39,2.43,1.35,8.93,5.36,9.51,5.36,9.51,4.79-2.5,4.93-9.83,4.93-9.83-1.24-1.07-2.74-1.81-4.35-2.12-.99.83-.93,5.91-.93,5.91h0Zm.34,29.25c-.2-1.82-.26-3.66-.18-5.49-.42,1.98-1.1,3.9-2.04,5.69.5,1.5,1.33,2.86,2.43,4,.92-1.23,1.66-2.57,2.21-4-.85-1.86-1.56-3.78-2.12-5.74.17,1.85.08,3.72-.29,5.54h0Zm0-9.1h.09c4.36-3.09,3.63-7.14,3.63-7.14-.65-.56-3.28-3.56-3.28-3.56.04,1.67-.04,3.34-.23,5-.33-1.66-.58-3.32-.75-5-.97,1.25-2.01,2.45-3.13,3.57-.18,2.87,1.23,5.61,3.68,7.13h0Z"/></svg>